<svg xmlns="http://www.w3.org/2000/svg" viewBox="0 0 269.291 61.767" fill='#fff'><g transform="translate(-11.688 -12.45)"><path class="a" d="M12.617,34a3.178,3.178,0,1,1,0,4.493A3.178,3.178,0,0,1,12.617,34Z"/><path class="a" d="M32.458,19.839a40.139,40.139,0,0,1,4.271-3.711A27.688,27.688,0,0,0,17.5,31.444,5.476,5.476,0,0,1,14.939,41.72c-.032.623-.053,1.246-.045,1.869a37.551,37.551,0,0,0,6.12,8,38.5,38.5,0,0,0,4.3,3.71C18.468,46.239,21.376,30.919,32.458,19.839Z"/><path class="a" d="M67.949,48.254a3.178,3.178,0,1,1,0,4.495A3.181,3.181,0,0,1,67.949,48.254Z"/><path class="a" d="M66.322,54.377a5.478,5.478,0,0,1,3.946-9.353c.043-.724.069-1.451.061-2.178a37.614,37.614,0,0,0-6.125-8,38.459,38.459,0,0,0-4.3-3.711c6.849,9.054,3.934,24.377-7.144,35.456a40.951,40.951,0,0,1-4.272,3.718A27.7,27.7,0,0,0,67.563,55.3,5.536,5.536,0,0,1,66.322,54.377Z"/><path class="a" d="M47.8,13.38a3.18,3.18,0,1,1,0,4.5A3.186,3.186,0,0,1,47.8,13.38Z"/><path class="a" d="M62.428,23.825a27.6,27.6,0,0,0-7.613-5.5,5.475,5.475,0,0,1-10.243-2.747c-.678-.05-1.355-.08-2.034-.08a37.576,37.576,0,0,0-8.061,6.039,38.626,38.626,0,0,0-3.759,4.256c9.136-6.749,24.42-3.673,35.381,7.528a41.025,41.025,0,0,1,3.67,4.314A27.611,27.611,0,0,0,62.428,23.825Z"/><path class="a" d="M32.846,68.791a3.177,3.177,0,1,1,0,4.491A3.176,3.176,0,0,1,32.846,68.791Z"/><path class="a" d="M31.221,67.164a5.471,5.471,0,0,1,9.342,3.691c.708.051,1.415.085,2.119.085A37.744,37.744,0,0,0,50.746,64.9,38.851,38.851,0,0,0,54.5,60.646c-9.132,6.747-24.419,3.668-35.38-7.53A41.751,41.751,0,0,1,15.456,48.8,27.7,27.7,0,0,0,30.449,68.135,5.443,5.443,0,0,1,31.221,67.164Z"/><path class="a" d="M89.727,61.512h-.872v2.542H88.1V57.576h2.035c1.246,0,2.215.436,2.215,1.819C92.347,60.825,90.99,61.512,89.727,61.512ZM89.99,58.1a5.244,5.244,0,0,0-1.135.06v2.8c.314.01.638.052.963.052a1.612,1.612,0,0,0,1.75-1.61C91.568,58.406,90.9,58.1,89.99,58.1Z"/><path class="a" d="M96.023,64.1c-.4,0-.538-.354-.476-.7a1.712,1.712,0,0,1-1.561.76,1.357,1.357,0,0,1-1.375-1.377c0-1.559,1.67-1.923,2.914-1.976v-.3a1.008,1.008,0,0,0-.992-1.135,5.042,5.042,0,0,0-1.315.284v-.352a2.906,2.906,0,0,1,1.517-.486,1.476,1.476,0,0,1,1.552,1.539l-.013,2.387a3.043,3.043,0,0,0,.082.872c.071.089.192.069.295.06v.374A6.1,6.1,0,0,1,96.023,64.1Zm-.507-2.753c-.747.012-2.146.224-2.146,1.216,0,.616.284.994.932.994,1.04,0,1.214-.914,1.214-1.762Z"/><path class="a" d="M99.138,64.165a3.39,3.39,0,0,1-1.607-.505v-.567a3.82,3.82,0,0,0,1.6.545.953.953,0,0,0,1.056-.9c0-1.175-2.693-.649-2.693-2.461a1.542,1.542,0,0,1,1.7-1.455,2.969,2.969,0,0,1,1.389.382v.445a3.613,3.613,0,0,0-1.4-.273.874.874,0,0,0-.973.842c0,1.06,2.723.688,2.723,2.428A1.627,1.627,0,0,1,99.138,64.165Z"/><path class="a" d="M103.413,64.165a3.394,3.394,0,0,1-1.611-.505v-.567a3.837,3.837,0,0,0,1.6.545.951.951,0,0,0,1.052-.9c0-1.175-2.693-.649-2.693-2.461a1.545,1.545,0,0,1,1.7-1.455,2.96,2.96,0,0,1,1.386.382v.445a3.6,3.6,0,0,0-1.4-.273.869.869,0,0,0-.967.842c0,1.06,2.721.688,2.721,2.428A1.629,1.629,0,0,1,103.413,64.165Z"/><path class="a" d="M106.782,58.061a.462.462,0,0,1-.484-.436.466.466,0,0,1,.931-.04A.463.463,0,0,1,106.782,58.061Zm-.414,5.993V58.963h.759v5.091Z"/><path class="a" d="M110.678,64.165c-1.62,0-2.378-1.154-2.378-2.673,0-1.537.749-2.67,2.378-2.67s2.4,1.122,2.4,2.67C113.081,63.011,112.3,64.165,110.678,64.165Zm0-4.789c-1.235,0-1.609,1.082-1.609,2.127,0,1.022.416,2.135,1.609,2.135s1.611-1.1,1.611-2.135S111.914,59.376,110.678,59.376Z"/><path class="a" d="M117.574,64.054V60.723c0-.748-.184-1.244-1.043-1.244a2.862,2.862,0,0,0-1.527.505v4.07h-.76V58.963H115v.4a4.869,4.869,0,0,1,1.822-.536c1.192,0,1.508.9,1.508,1.92v3.3Z"/><path class="a" d="M123.658,57.545c-.818,0-.73.819-.73,1.418h1.591v.556h-1.591v4.535h-.76V59.519h-.729v-.556h.729V58.8c0-.9.365-1.8,1.4-1.8a2.139,2.139,0,0,1,1.042.243v.426A4.357,4.357,0,0,0,123.658,57.545Z"/><path class="a" d="M127.432,64.165c-1.618,0-2.377-1.154-2.377-2.673,0-1.537.748-2.67,2.377-2.67s2.4,1.122,2.4,2.67C129.834,63.011,129.053,64.165,127.432,64.165Zm0-4.789c-1.234,0-1.609,1.082-1.609,2.127,0,1.022.416,2.135,1.609,2.135s1.612-1.1,1.612-2.135S128.669,59.376,127.432,59.376Z"/><path class="a" d="M131.755,60.389v3.665H131V58.963h.758v.808a1.579,1.579,0,0,1,1.529-.939v.748A1.672,1.672,0,0,0,131.755,60.389Z"/><path class="a" d="M136.646,64.054V57.576h.76v6.478Z"/><path class="a" d="M142.345,64.054V60.723c0-.748-.183-1.244-1.043-1.244a2.871,2.871,0,0,0-1.528.505v4.07h-.759V58.963h.759v.4a4.875,4.875,0,0,1,1.82-.536c1.2,0,1.509.9,1.509,1.92v3.3Z"/><path class="a" d="M147.984,64.054l-.011-.505a2.742,2.742,0,0,1-1.722.616c-1.447,0-2-1.417-2-2.662,0-1.316.587-2.681,2.094-2.681a2.052,2.052,0,0,1,1.642.866V57h.758v7.056Zm0-3.3c0-.616-1-1.295-1.571-1.295-1.094,0-1.4,1.043-1.4,1.955s.3,2.124,1.436,2.124a2.468,2.468,0,0,0,1.531-.6Z"/><path class="a" d="M150.675,61.594c0,1.03.535,1.966,1.67,1.966a5.5,5.5,0,0,0,1.558-.245v.546a4.335,4.335,0,0,1-1.64.3c-1.617,0-2.357-1.085-2.357-2.619,0-1.461.708-2.7,2.308-2.7,1.377,0,1.946,1.162,1.946,2.387v.365Zm1.489-2.218a1.668,1.668,0,0,0-1.458,1.743h2.773C153.479,60.339,153.064,59.376,152.164,59.376Z"/><path class="a" d="M157.793,64.2a2.064,2.064,0,0,1-1.643-.87v2.69h-.756V58.963h.756v.4a3.1,3.1,0,0,1,1.734-.516c1.446,0,2,1.417,2,2.66C159.886,62.828,159.3,64.2,157.793,64.2Zm-.113-4.718a2.707,2.707,0,0,0-1.53.505v2.278c0,.617,1.005,1.3,1.57,1.3,1.1,0,1.4-1.045,1.4-1.957S158.815,59.479,157.68,59.479Z"/><path class="a" d="M161.417,61.594c0,1.03.535,1.966,1.671,1.966a5.5,5.5,0,0,0,1.556-.245v.546a4.339,4.339,0,0,1-1.638.3c-1.622,0-2.36-1.085-2.36-2.619,0-1.461.71-2.7,2.31-2.7,1.374,0,1.943,1.162,1.943,2.387v.365Zm1.487-2.218a1.671,1.671,0,0,0-1.459,1.743h2.773C164.218,60.339,163.806,59.376,162.9,59.376Z"/><path class="a" d="M169.464,64.054V60.723c0-.748-.183-1.244-1.043-1.244a2.877,2.877,0,0,0-1.529.505v4.07h-.76V58.963h.76v.4a4.9,4.9,0,0,1,1.822-.536c1.195,0,1.508.9,1.508,1.92v3.3Z"/><path class="a" d="M175.1,64.054l-.014-.505a2.732,2.732,0,0,1-1.719.616c-1.447,0-2.006-1.417-2.006-2.662,0-1.316.587-2.681,2.1-2.681a2.059,2.059,0,0,1,1.644.866V57h.757v7.056Zm0-3.3c0-.616-1-1.295-1.57-1.295-1.1,0-1.4,1.043-1.4,1.955s.3,2.124,1.438,2.124a2.473,2.473,0,0,0,1.531-.6Z"/><path class="a" d="M177.795,61.594c0,1.03.537,1.966,1.669,1.966a5.5,5.5,0,0,0,1.559-.245v.546a4.324,4.324,0,0,1-1.638.3c-1.62,0-2.361-1.085-2.361-2.619,0-1.461.71-2.7,2.309-2.7,1.379,0,1.943,1.162,1.943,2.387v.365Zm1.489-2.218a1.67,1.67,0,0,0-1.459,1.743H180.6C180.6,60.339,180.185,59.376,179.284,59.376Z"/><path class="a" d="M185.842,64.054V60.723c0-.748-.182-1.244-1.041-1.244a2.878,2.878,0,0,0-1.53.505v4.07h-.761V58.963h.761v.4a4.9,4.9,0,0,1,1.821-.536c1.2,0,1.51.9,1.51,1.92v3.3Z"/><path class="a" d="M190.076,64.165a2.329,2.329,0,0,1-2.361-2.619c0-1.562.738-2.724,2.417-2.736a2.81,2.81,0,0,1,1.481.463v.478a3.242,3.242,0,0,0-1.459-.375c-1.234,0-1.672,1.1-1.672,2.17s.487,2.014,1.672,2.014a5.471,5.471,0,0,0,1.559-.245v.6A4.952,4.952,0,0,1,190.076,64.165Z"/><path class="a" d="M193.072,61.594c0,1.03.534,1.966,1.67,1.966a5.5,5.5,0,0,0,1.557-.245v.546a4.345,4.345,0,0,1-1.64.3c-1.621,0-2.36-1.085-2.36-2.619,0-1.461.71-2.7,2.31-2.7,1.376,0,1.943,1.162,1.943,2.387v.365Zm1.487-2.218a1.668,1.668,0,0,0-1.458,1.743h2.773C195.874,60.339,195.459,59.376,194.559,59.376Z"/><path class="a" d="M198.111,65.268l-.213-.111a5.735,5.735,0,0,0,.153-1.113,3.785,3.785,0,0,0-.153-.951h.81A3.586,3.586,0,0,1,198.111,65.268Z"/><path class="a" d="M206.171,64.054l-2.4-2.976h-.425v2.976h-.757V57.576H204.6c1.062,0,2.195.424,2.195,1.68,0,1.366-.981,1.66-2.115,1.814l2.612,2.984ZM204.539,58.1c-.4,0-.8.04-1.194.07v2.458c.312.02.64.062.953.062a1.51,1.51,0,0,0,1.72-1.4C206.018,58.354,205.378,58.1,204.539,58.1Z"/><path class="a" d="M208.649,61.594c0,1.03.536,1.966,1.671,1.966a5.559,5.559,0,0,0,1.562-.245v.546a4.374,4.374,0,0,1-1.645.3c-1.619,0-2.359-1.085-2.359-2.619,0-1.461.711-2.7,2.309-2.7,1.38,0,1.943,1.162,1.943,2.387v.365Zm1.488-2.218a1.67,1.67,0,0,0-1.459,1.743h2.778C211.456,60.339,211.037,59.376,210.137,59.376Z"/><path class="a" d="M214.685,64.165a3.405,3.405,0,0,1-1.612-.505v-.567a3.821,3.821,0,0,0,1.6.545.951.951,0,0,0,1.052-.9c0-1.175-2.693-.649-2.693-2.461a1.541,1.541,0,0,1,1.7-1.455,2.948,2.948,0,0,1,1.387.382v.445a3.6,3.6,0,0,0-1.4-.273.872.872,0,0,0-.969.842c0,1.06,2.724.688,2.724,2.428A1.631,1.631,0,0,1,214.685,64.165Z"/><path class="a" d="M220.038,64.2a2.052,2.052,0,0,1-1.639-.87v2.69h-.758V58.963h.758v.4a3.082,3.082,0,0,1,1.733-.516c1.445,0,2,1.417,2,2.66C222.132,62.828,221.546,64.2,220.038,64.2Zm-.111-4.718a2.7,2.7,0,0,0-1.528.505v2.278c0,.617,1,1.3,1.567,1.3,1.1,0,1.4-1.045,1.4-1.957S221.063,59.479,219.927,59.479Z"/><path class="a" d="M223.66,61.594c0,1.03.539,1.966,1.672,1.966a5.5,5.5,0,0,0,1.559-.245v.546a4.347,4.347,0,0,1-1.639.3c-1.621,0-2.36-1.085-2.36-2.619,0-1.461.708-2.7,2.309-2.7,1.377,0,1.947,1.162,1.947,2.387v.365Zm1.493-2.218a1.671,1.671,0,0,0-1.462,1.743h2.776C226.467,60.339,226.051,59.376,225.153,59.376Z"/><path class="a" d="M230.3,64.165a2.326,2.326,0,0,1-2.357-2.619c0-1.562.736-2.724,2.417-2.736a2.815,2.815,0,0,1,1.48.463v.478a3.268,3.268,0,0,0-1.462-.375c-1.235,0-1.668,1.1-1.668,2.17s.487,2.014,1.668,2.014a5.5,5.5,0,0,0,1.561-.245v.6A4.971,4.971,0,0,1,230.3,64.165Z"/><path class="a" d="M234.515,64.165c-1.094,0-1.4-.535-1.4-1.581V59.519h-.727v-.375a1.515,1.515,0,0,0,1.132-1.255l.357-.08v1.154h1.587v.556H233.88v3.028c0,.546.058,1.073.738,1.073a4.263,4.263,0,0,0,.94-.121v.322A2.154,2.154,0,0,1,234.515,64.165Z"/><path class="a" d="M240.194,57.545c-.821,0-.731.819-.731,1.418h1.592v.556h-1.592v4.535h-.757V59.519h-.727v-.556h.727V58.8c0-.9.365-1.8,1.4-1.8a2.133,2.133,0,0,1,1.041.243v.426A4.317,4.317,0,0,0,240.194,57.545Z"/><path class="a" d="M243.97,64.165c-1.619,0-2.377-1.154-2.377-2.673,0-1.537.747-2.67,2.377-2.67s2.4,1.122,2.4,2.67C246.37,63.011,245.589,64.165,243.97,64.165Zm0-4.789c-1.234,0-1.61,1.082-1.61,2.127,0,1.022.414,2.135,1.61,2.135s1.611-1.1,1.611-2.135S245.2,59.376,243.97,59.376Z"/><path class="a" d="M248.293,60.389v3.665h-.758V58.963h.758v.808a1.577,1.577,0,0,1,1.528-.939v.748A1.672,1.672,0,0,0,248.293,60.389Z"/><path class="a" d="M255.744,64.183c-1.913,0-2.948-1.617-2.948-3.388a3.136,3.136,0,0,1,2.928-3.353,3.321,3.321,0,0,1,1.963.629v.494a3.361,3.361,0,0,0-1.935-.595c-1.608,0-2.177,1.509-2.177,2.884,0,1.4.679,2.815,2.259,2.815A3.767,3.767,0,0,0,257.89,63v.608A3.988,3.988,0,0,1,255.744,64.183Z"/><path class="a" d="M262.395,64.054V60.723c0-.748-.183-1.244-1.044-1.244a2.88,2.88,0,0,0-1.529.505v4.07h-.759V57h.759v2.37a4.9,4.9,0,0,1,1.824-.536c1.194,0,1.51.9,1.51,1.92v3.3Z"/><path class="a" d="M266.646,64.165c-1.621,0-2.381-1.154-2.381-2.673,0-1.537.751-2.67,2.381-2.67s2.4,1.122,2.4,2.67C269.044,63.011,268.265,64.165,266.646,64.165Zm0-4.789c-1.234,0-1.61,1.082-1.61,2.127,0,1.022.414,2.135,1.61,2.135s1.608-1.1,1.608-2.135S267.879,59.376,266.646,59.376Z"/><path class="a" d="M270.622,58.061a.463.463,0,0,1-.484-.436.465.465,0,1,1,.93-.04A.463.463,0,0,1,270.622,58.061Zm-.412,5.993V58.963h.758v5.091Z"/><path class="a" d="M274.5,64.165a2.327,2.327,0,0,1-2.357-2.619c0-1.562.74-2.724,2.418-2.736a2.824,2.824,0,0,1,1.48.463v.478a3.27,3.27,0,0,0-1.46-.375c-1.233,0-1.667,1.1-1.667,2.17s.485,2.014,1.667,2.014a5.52,5.52,0,0,0,1.562-.245v.6A5,5,0,0,1,274.5,64.165Z"/><path class="a" d="M277.5,61.594c0,1.03.536,1.966,1.67,1.966a5.5,5.5,0,0,0,1.557-.245v.546a4.343,4.343,0,0,1-1.641.3c-1.618,0-2.355-1.085-2.355-2.619,0-1.461.707-2.7,2.308-2.7,1.374,0,1.942,1.162,1.942,2.387v.365Zm1.486-2.218a1.669,1.669,0,0,0-1.457,1.743H280.3C280.3,60.339,279.887,59.376,278.984,59.376Z"/><path class="a" d="M94.749,46.45a13.441,13.441,0,0,1-7.011-1.889V42.418a16.917,16.917,0,0,0,6.9,2.216,4.577,4.577,0,0,0,4.869-4.541c0-6.142-11.482-3.781-11.482-11.665,0-3.924,3.344-6.176,7.013-6.176a9.809,9.809,0,0,1,5.6,1.635V25.34A14.9,14.9,0,0,0,95,24.139a4.187,4.187,0,0,0-4.359,4c0,5.847,11.517,3.776,11.517,11.66C102.161,43.87,98.564,46.45,94.749,46.45Z"/><path class="a" d="M116.937,46.159c-1.417,0-1.926-1.272-1.709-2.508a6.135,6.135,0,0,1-5.595,2.725,4.878,4.878,0,0,1-4.941-4.941c0-5.6,5.995-6.9,10.465-7.084V33.262c0-2.216-1.2-4.072-3.562-4.072a18.008,18.008,0,0,0-4.723,1.018V28.936a10.517,10.517,0,0,1,5.45-1.743,5.292,5.292,0,0,1,5.558,5.524l-.036,8.575a10.978,10.978,0,0,0,.291,3.122c.254.328.691.256,1.053.22v1.343C118.426,46.05,117.7,46.159,116.937,46.159Zm-1.817-9.883c-2.689.036-7.7.8-7.7,4.36,0,2.218,1.016,3.56,3.342,3.56,3.742,0,4.36-3.269,4.36-6.319Z"/><path class="a" d="M127.436,53.369a14.36,14.36,0,0,1-5.776-1.31V50.032a14.879,14.879,0,0,0,5.886,1.267c2.179,0,7.039.065,7.039-2.914,0-2.875-5.586-2.408-7.73-2.371-1.162,0-4.358-.074-4.358-1.744,0-.834,1.742-3.162,2.323-3.853-2.361-1.271-3.342-3.814-3.342-6.393,0-4.469,2.543-6.795,6.941-6.795a9.16,9.16,0,0,1,2.8.4l5.415-.545v1.782c-.983-.074-1.963-.145-2.944-.257a9.479,9.479,0,0,1,1.961,5.415c0,4.323-2.724,7.232-7.156,7.232a8.57,8.57,0,0,1-2.362-.329,5.13,5.13,0,0,0-.654,1.454c0,1.307,1.743,1.307,2.689,1.307,3.3,0,8.829.09,8.829,4.444C136.993,53.116,131.458,53.454,127.436,53.369Zm1.018-24.433c-2.761,0-4,2.835-4,5.234,0,2.433,1.089,5.63,4,5.63s4.141-3.159,4.141-5.63S131.252,28.936,128.454,28.936Z"/><path class="a" d="M141.448,37.148c0,3.707,1.926,7.048,5.995,7.048a19.534,19.534,0,0,0,5.6-.872v1.963a15.792,15.792,0,0,1-5.886,1.089c-5.814,0-8.466-3.888-8.466-9.411,0-5.23,2.543-9.7,8.284-9.7,4.941,0,6.976,4.179,6.976,8.575v1.308Zm5.342-7.958c-3.162,0-5.233,3.379-5.233,6.25h9.955C151.512,32.643,150.023,29.19,146.79,29.19Z"/><path class="a" d="M166.021,46.45c-5.813,0-9.629-4.032-9.629-9.809,0-5.38,3.524-9.521,9.048-9.521a12.043,12.043,0,0,1,6.138,1.961v2.363a13.258,13.258,0,0,0-5.013-1.051c-3.814,0-5.341,2.757-5.341,6.248,0,3.812,2.253,6.576,6.176,6.576a20.878,20.878,0,0,0,5.233-.836v2.833A16.471,16.471,0,0,1,166.021,46.45Z"/><path class="a" d="M188.473,46.195c-1.818,0-1.708-1.6-1.925-2.908a7.963,7.963,0,0,1-5.959,3.163c-3.017,0-5.6-2-5.6-5.158,0-5.961,6.614-6.652,11.228-6.832V33.371c0-2.072-1.707-3.127-3.67-3.127a17.829,17.829,0,0,0-5.523.838V29.045a12.485,12.485,0,0,1,6.5-1.925c3.635,0,7.377,1.561,7.377,5.742v6.976c0,.615-.145,3.958.4,4.4a1.252,1.252,0,0,0,.726.11v1.633C190.871,46.014,189.672,46.195,188.473,46.195ZM179.681,40.6a2.6,2.6,0,0,0,2.687,2.795,3.886,3.886,0,0,0,3.853-3.777V37C184.077,37.113,179.681,37.877,179.681,40.6Z"/><path class="a" d="M204.384,30.935a6.635,6.635,0,0,0-4.285,2.037V45.977h-4.832V27.7H200.1l.037,2.394c.87-1.742,3.849-3.014,5.667-3.014a3.979,3.979,0,0,1,.654.036v4.324A4.178,4.178,0,0,0,204.384,30.935Z"/><path class="a" d="M224.549,37.768H212.6c.108,3.667,2.652,5.449,6.139,5.449a21.014,21.014,0,0,0,5.232-.836v2.833a16.974,16.974,0,0,1-6.612,1.236c-5.814,0-9.629-4.032-9.629-9.809,0-5.559,3.234-9.521,8.975-9.521,5.632,0,7.921,4.251,7.921,9.373C224.623,36.894,224.586,37.33,224.549,37.768Zm-7.847-7.56c-2.4,0-3.923,2.361-4.1,4.542h8.067C220.59,32.352,219.319,30.208,216.7,30.208Z"/><path class="a" d="M237.484,45.977V22.724h2.725V44.051h10.355v1.926Z"/><path class="a" d="M258.847,46.376c-3.924,0-5.014-1.927-5.014-5.668V29.7h-2.615V28.356c2.433-.727,3.377-2.036,4.069-4.505l1.269-.291V27.7h5.707V29.7h-5.707V40.562c0,1.964.22,3.852,2.653,3.852a15.173,15.173,0,0,0,3.38-.433v1.161A7.751,7.751,0,0,1,258.847,46.376Z"/><path class="a" d="M278.054,45.977l-.037-1.817a9.818,9.818,0,0,1-6.177,2.216c-5.194,0-7.192-5.084-7.192-9.554,0-4.723,2.1-9.629,7.521-9.629a7.351,7.351,0,0,1,5.885,3.124V20.651h2.725V45.977Zm0-11.843c0-2.218-3.6-4.651-5.633-4.651-3.922,0-5.013,3.743-5.013,7.01,0,3.307,1.091,7.632,5.159,7.632a8.819,8.819,0,0,0,5.487-2.18Z"/></g></svg>